HIERARCHY
ROOT Hips
{
	OFFSET -240.519104 91.357132 402.348785
	CHANNELS 6 Xposition Yposition Zposition Zrotation Yrotation Xrotation 
	JOINT LeftUpLeg
	{
		OFFSET 0.103458 1.857834 10.548510
		CHANNELS 3 Zrotation Yrotation Xrotation
		JOINT LeftLeg
		{
			OFFSET 43.500004 -0.000038 -0.000006
			CHANNELS 3 Zrotation Yrotation Xrotation
			JOINT LeftFoot
			{
				OFFSET 42.372192 0.000015 -0.000002
				CHANNELS 3 Zrotation Yrotation Xrotation
				JOINT LeftToe
				{
					OFFSET 17.300009 0.000003 -0.000006
					CHANNELS 3 Zrotation Yrotation Xrotation
					End Site
					{
						OFFSET 0.000000 0.000000 0.000000
					}
				}
			}
		}
	}
	JOINT RightUpLeg
	{
		OFFSET 0.103463 1.857841 -10.548498
		CHANNELS 3 Zrotation Yrotation Xrotation
		JOINT RightLeg
		{
			OFFSET 43.500042 -0.000046 0.000025
			CHANNELS 3 Zrotation Yrotation Xrotation
			JOINT RightFoot
			{
				OFFSET 42.372261 -0.000008 -0.000003
				CHANNELS 3 Zrotation Yrotation Xrotation
				JOINT RightToe
				{
					OFFSET 17.300001 -0.000003 0.000011
					CHANNELS 3 Zrotation Yrotation Xrotation
					End Site
					{
						OFFSET 0.000000 0.000000 0.000000
					}
				}
			}
		}
	}
	JOINT Spine
	{
		OFFSET 6.901968 -2.603734 0.000007
		CHANNELS 3 Zrotation Yrotation Xrotation
		JOINT Spine1
		{
			OFFSET 12.588101 0.000000 -0.000008
			CHANNELS 3 Zrotation Yrotation Xrotation
			JOINT Spine2
			{
				OFFSET 12.343197 0.000010 -0.000007
				CHANNELS 3 Zrotation Yrotation Xrotation
				JOINT Neck
				{
					OFFSET 25.832905 -0.000008 0.000010
					CHANNELS 3 Zrotation Yrotation Xrotation
					JOINT Head
					{
						OFFSET 11.766598 -0.000002 -0.000010
						CHANNELS 3 Zrotation Yrotation Xrotation
						End Site
						{
							OFFSET 0.000000 0.000000 0.000000
						}
					}
				}
				JOINT LeftShoulder
				{
					OFFSET 19.745899 -1.480373 6.000105
					CHANNELS 3 Zrotation Yrotation Xrotation
					JOINT LeftArm
					{
						OFFSET 11.284138 -0.000004 -0.000017
						CHANNELS 3 Zrotation Yrotation Xrotation
						JOINT LeftForeArm
						{
							OFFSET 33.000050 0.000013 0.000033
							CHANNELS 3 Zrotation Yrotation Xrotation
							JOINT LeftHand
							{
								OFFSET 25.200001 -0.000009 -0.000001
								CHANNELS 3 Zrotation Yrotation Xrotation
								End Site
								{
									OFFSET 0.000000 0.000000 0.000000
								}
							}
						}
					}
				}
				JOINT RightShoulder
				{
					OFFSET 19.746101 -1.480377 -6.000072
					CHANNELS 3 Zrotation Yrotation Xrotation
					JOINT RightArm
					{
						OFFSET 11.284133 -0.000004 -0.000014
						CHANNELS 3 Zrotation Yrotation Xrotation
						JOINT RightForeArm
						{
							OFFSET 33.000099 0.000009 0.000023
							CHANNELS 3 Zrotation Yrotation Xrotation
							JOINT RightHand
							{
								OFFSET 25.199770 0.000143 0.000407
								CHANNELS 3 Zrotation Yrotation Xrotation
								End Site
								{
									OFFSET 0.000000 0.000000 0.000000
								}
							}
						}
					}
				}
			}
		}
	}
}
MOTION
Frames: 7
Frame Time: 0.033333
193.743393 91.357132 495.993408 90.211704 -1.09643 86.826444 172.612363 -5.289698 168.545354 -20.14107 2.330441 -4.13389 82.185248 1.367576 -6.512993 21.454553 0.003086 -0.0 172.140028 2.0976 -171.126073 -19.502126 -2.919102 7.75684 86.136144 -4.073695 6.719197 21.45456 -0.003107 -1.7e-05 5.332152 0.324868 -0.124148 0.650793 0.650315 -0.246679 0.332669 0.648941 -0.250606 7.431013 4.12995 -5.09636 -25.655181 -2.54954 -3.579321 -49.496899 -84.818054 -132.729331 1.759931 13.63783 -5.65709 -33.285175 -24.410138 1.906963 10.807174 -2.703913 -11.155149 -96.947056 87.065487 85.008323 -0.089664 -11.072111 25.548172 -42.855643 15.337362 -1.58413 1.597992 5.688168 -7.972264 
193.910706 91.335098 496.087585 90.216588 -1.062095 86.753313 172.611981 -5.19949 168.554438 -20.368346 2.302002 -4.196404 82.382948 1.435955 -6.448925 21.45455 0.003082 -1e-06 172.139373 2.249209 -170.989059 -19.656823 -2.93886 7.62025 86.19181 -3.965879 6.803803 21.454558 -0.003103 -1.6e-05 5.33877 0.29454 -0.103441 0.664166 0.589563 -0.205412 0.346056 0.58844 -0.208965 7.543238 3.940503 -5.04313 -25.677642 -2.566672 -3.550108 -49.889139 -84.78921 -132.340844 1.735794 13.586331 -5.58455 -33.234341 -24.432381 1.906959 10.79123 -2.620217 -11.181838 -97.139142 87.089666 84.813696 -0.0672 -11.095101 25.525875 -42.896002 15.321854 -1.584112 1.583848 5.536846 -8.040718 
194.1931 91.297401 496.248688 90.246566 -1.018334 86.622863 172.638263 -4.972699 168.652493 -20.656478 2.307464 -4.369103 82.666353 1.583805 -6.387318 21.454553 0.003087 2e-06 172.094334 2.508893 -170.813961 -19.968847 -2.998155 7.420363 86.290732 -3.803151 6.958735 21.454562 -0.003108 -1.5e-05 5.346466 0.244754 -0.068255 0.679808 0.489827 -0.135273 0.361698 0.489137 -0.138221 7.653633 3.519976 -4.90676 -25.689699 -2.586089 -3.467668 -50.673074 -84.738728 -131.563841 1.693439 13.519702 -5.544766 -33.184792 -24.461173 1.906963 10.777005 -2.496942 -11.174125 -96.71039 87.147893 85.238596 -0.014441 -11.109041 25.460797 -42.866779 15.308549 -1.58412 1.543903 5.360514 -8.207043 
194.479904 91.267197 496.408691 90.31831 -0.991221 86.496778 172.731782 -4.651901 168.697941 -20.747108 2.386949 -4.527838 82.848576 1.710991 -6.341583 21.454553 0.003085 0.0 172.00949 2.791 -170.731384 -20.313789 -3.07845 7.277468 86.379067 -3.672987 7.150182 21.454558 -0.003101 -1.6e-05 5.34992 0.193229 -0.041513 0.686883 0.386641 -0.08201 0.368774 0.386276 -0.084347 7.639306 2.955285 -4.733125 -25.581307 -2.585252 -3.374168 -51.742204 -84.67811 -130.502935 1.661152 13.52665 -5.692458 -33.218663 -24.483477 1.906959 10.791165 -2.492629 -11.131807 -95.573321 87.227021 86.371465 0.011872 -11.087379 25.37348 -42.726016 15.307079 -1.580052 1.531172 5.281039 -8.359925 
194.763702 91.24585 496.565887 90.428699 -0.97264 86.414727 172.883084 -4.289506 168.649924 -20.672802 2.476489 -4.611694 82.946015 1.78811 -6.262069 21.454545 0.003088 -1e-06 171.924467 3.109104 -170.638657 -20.644612 -3.162797 7.151984 86.459 -3.552911 7.352206 21.454558 -0.003117 -1.8e-05 5.352398 0.132931 -0.030204 0.685506 0.265961 -0.059711 0.367382 0.265729 -0.06132 7.545041 2.355455 -4.552173 -25.38366 -2.606683 -3.267839 -52.545718 -84.629725 -129.70618 1.685121 13.58497 -5.916575 -33.304159 -24.525271 1.911635 10.807648 -2.591934 -11.108133 -94.726616 87.310807 87.212746 0.010247 -11.03555 25.321282 -42.530362 15.284543 -1.573082 1.576277 5.204091 -8.387727 
195.032303 91.225433 496.7164 90.540578 -0.966694 86.410151 173.001916 -3.964608 168.633737 -20.610487 2.507192 -4.656876 83.040388 1.847444 -6.144687 21.454551 0.003092 0.0 171.85245 3.427705 -170.489964 -20.943653 -3.240704 7.039829 86.541256 -3.443363 7.549172 21.454558 -0.003112 -1.7e-05 5.353556 0.066465 -0.032749 0.683587 0.133037 -0.065146 0.365483 0.132789 -0.06597 7.369486 1.826982 -4.407664 -25.138463 -2.702729 -3.15546 -52.636709 -84.622103 -129.616008 1.784016 13.637709 -6.103474 -33.410618 -24.596353 1.918722 10.803933 -2.671424 -11.084857 -94.813517 87.360401 87.121549 0.010592 -10.956612 25.278691 -42.344929 15.254987 -1.565964 1.63102 5.116998 -8.361269 
195.282898 91.196442 496.853485 90.629213 -0.976969 86.48195 173.012476 -3.714293 168.736504 -20.708712 2.45974 -4.708926 83.199572 1.920806 -6.005614 21.454551 0.003091 -1e-06 171.775979 3.716095 -170.359357 -21.239797 -3.295406 6.985424 86.64095 -3.375487 7.745569 21.454558 -0.003107 -1.7e-05 5.354038 0.001303 -0.042774 0.688571 0.002758 -0.085526 0.370475 0.002387 -0.085555 7.042599 1.360104 -4.316102 -24.822794 -2.848044 -3.067736 -52.349558 -84.637573 -129.900977 1.887127 13.659669 -6.242494 -33.541181 -24.690026 1.927839 10.774073 -2.642801 -11.001696 -95.262178 87.346938 86.672628 0.03486 -10.87164 25.204122 -42.211952 15.246632 -1.561712 1.65699 5.043413 -8.389234 
